<svg width="440" height="122" viewBox="0 0 440 122" fill="none" xmlns="http://www.w3.org/2000/svg">
<path d="M130.048 43.88V56.48H146.968V64.472H130.048V77.792H149.128V86H119.968V35.672H149.128V43.88H130.048ZM174.92 76.712L185 46.112H195.728L180.968 86H168.728L154.04 46.112H164.84L174.92 76.712ZM238.47 65.192C238.47 66.632 238.374 67.928 238.182 69.08H209.022C209.262 71.96 210.27 74.216 212.046 75.848C213.822 77.48 216.006 78.296 218.598 78.296C222.342 78.296 225.006 76.688 226.59 73.472H237.462C236.31 77.312 234.102 80.48 230.838 82.976C227.574 85.424 223.566 86.648 218.814 86.648C214.974 86.648 211.518 85.808 208.446 84.128C205.422 82.4 203.046 79.976 201.318 76.856C199.638 73.736 198.798 70.136 198.798 66.056C198.798 61.928 199.638 58.304 201.318 55.184C202.998 52.064 205.35 49.664 208.374 47.984C211.398 46.304 214.878 45.464 218.814 45.464C222.606 45.464 225.99 46.28 228.966 47.912C231.99 49.544 234.318 51.872 235.95 54.896C237.63 57.872 238.47 61.304 238.47 65.192ZM228.03 62.312C227.982 59.72 227.046 57.656 225.222 56.12C223.398 54.536 221.166 53.744 218.526 53.744C216.03 53.744 213.918 54.512 212.19 56.048C210.51 57.536 209.478 59.624 209.094 62.312H228.03ZM267.931 45.536C272.683 45.536 276.523 47.048 279.451 50.072C282.379 53.048 283.843 57.224 283.843 62.6V86H273.763V63.968C273.763 60.8 272.971 58.376 271.387 56.696C269.803 54.968 267.643 54.104 264.907 54.104C262.123 54.104 259.915 54.968 258.283 56.696C256.699 58.376 255.907 60.8 255.907 63.968V86H245.827V46.112H255.907V51.08C257.251 49.352 258.955 48.008 261.019 47.048C263.131 46.04 265.435 45.536 267.931 45.536ZM305.165 54.392V73.688C305.165 75.032 305.477 76.016 306.101 76.64C306.773 77.216 307.877 77.504 309.413 77.504H314.093V86H307.757C299.261 86 295.013 81.872 295.013 73.616V54.392H290.261V46.112H295.013V36.248H305.165V46.112H314.093V54.392H305.165ZM343.807 45.536C346.831 45.536 349.519 46.208 351.871 47.552C354.223 48.848 356.047 50.792 357.343 53.384C358.687 55.928 359.359 59 359.359 62.6V86H349.279V63.968C349.279 60.8 348.487 58.376 346.903 56.696C345.319 54.968 343.159 54.104 340.423 54.104C337.639 54.104 335.431 54.968 333.799 56.696C332.215 58.376 331.423 60.8 331.423 63.968V86H321.343V32.72H331.423V51.08C332.719 49.352 334.447 48.008 336.607 47.048C338.767 46.04 341.167 45.536 343.807 45.536ZM406.601 46.112V86H396.449V80.96C395.153 82.688 393.449 84.056 391.337 85.064C389.273 86.024 387.017 86.504 384.569 86.504C381.449 86.504 378.689 85.856 376.289 84.56C373.889 83.216 371.993 81.272 370.601 78.728C369.257 76.136 368.585 73.064 368.585 69.512V46.112H378.665V68.072C378.665 71.24 379.457 73.688 381.041 75.416C382.625 77.096 384.785 77.936 387.521 77.936C390.305 77.936 392.489 77.096 394.073 75.416C395.657 73.688 396.449 71.24 396.449 68.072V46.112H406.601ZM428.282 54.392V73.688C428.282 75.032 428.594 76.016 429.218 76.64C429.89 77.216 430.994 77.504 432.53 77.504H437.21V86H430.874C422.378 86 418.13 81.872 418.13 73.616V54.392H413.378V46.112H418.13V36.248H428.282V46.112H437.21V54.392H428.282Z" fill="white"/>
<rect x="35.7933" y="26.7355" width="59.3735" height="55.5494" transform="rotate(11.1373 35.7933 26.7355)" fill="white"/>
<path d="M69.2129 10.6685L109.043 55.976L15.1814 37.4977L69.2129 10.6685Z" fill="white"/>
<mask id="mask0" mask-type="alpha" maskUnits="userSpaceOnUse" x="38" y="42" width="44" height="51">
<path d="M81.356 92.3369H71.276L48.452 57.8489V92.3369H38.372V42.0089H48.452L71.276 76.5689V42.0089H81.356V92.3369Z" fill="white"/>
</mask>
<g mask="url(#mask0)">
<rect x="35.7933" y="27.7355" width="59.3735" height="55.5494" transform="rotate(11.1373 35.7933 27.7355)" fill="#333333"/>
<path d="M69.2129 11.6685L109.043 56.976L15.1814 38.4977L69.2129 11.6685Z" fill="#333333"/>
</g>
</svg>
